<svg xmlns="http://www.w3.org/2000/svg" id="Layer_1" data-name="Layer 1" viewBox="0 0 298.23 158.42" class="svg replaced-svg"><defs><style>.cls-1{fill:#b19e61;}.cls-2{fill:#a10e2f;}</style></defs><title>Artboard 1</title><path class="cls-1" d="M105.38,144.27l4.93-1.06a18.68,18.68,0,0,0,1-2.64h0v0h0c.08-.35.21-.93.36-1.7l-4.29.93a6.65,6.65,0,0,0-2,4.2v.28"></path><path class="cls-1" d="M0,154.31c0,1.62,0,2.45,0,4.11,32.24-.83,63.83-5.7,95.17-12a13.47,13.47,0,0,1,.87-4.25c-31.63,6.4-63.5,11.34-96,12.18"></path><path class="cls-1" d="M297.17,110.59c0-1.61,0-2.41,0-4-59.87,1.68-117.5,17.17-175.55,30.07-.43,1.62-.83,3.06-1.2,4.33,58.45-13,116.45-28.72,176.74-30.41"></path><path class="cls-2" d="M8.35,83.06a3.94,3.94,0,0,1-.12,1,2.15,2.15,0,0,1-2,1.28c-2.4,0-3.6.9-3.61,2.61,0,1.92,1.18,2.87,3.59,2.82q2.85,0,4.86-3.72a19.38,19.38,0,0,0,2-9.22V75.91a25.82,25.82,0,0,1,2.47-11.66c1.62-3.18,3.83-4.88,6.65-5a3.1,3.1,0,0,1,3.34,1.7A14.53,14.53,0,0,1,25.92,65c0,9.46-.05,14-.09,22.87,0,3.91-.62,6.28-1.78,7.16a6.45,6.45,0,0,1-3,.73,3.91,3.91,0,0,1-1.24-.25.86.86,0,0,0-.21,0c-.19,0-.28.1-.29.26q0,3,3.2,4.61a4.71,4.71,0,0,1,3.2,4.56q-.09,15-.18,30c0,3.64-1.47,6-4.37,6.83-1.41.7-2.12,1.12-2.12,1.26,0,.31.92.41,2.73.29,7.64-.52,11.46-.87,19.1-1.74,1.82-.22,2.73-.47,2.73-.77,0-.54-.74-.82-2.23-.88-2.72-.36-4.08-2.42-4.06-6.06q.2-34.23.37-68.45c0-4.92,1.25-7.59,3.74-7.85s4.62,1.12,6.43,4.06c2.05,3.38,3.07,8.26,3,14.49,0,1,0,1.42,0,2.36,0,6.87,1.93,10,5.89,9.4q3.12-.42,3.13-2.9c0-.12,0-.25,0-.38-.16-1.52-1.36-2.12-3.59-1.82A11.72,11.72,0,0,1,55.85,79c0-3.72,1.07-8.66,3.15-15,.25-.81,2-5.7,5.24-15.45A548.41,548.41,0,0,1,.75,53.68c3.22,9.23,7,18.39,7.61,28.26,0,.37,0,.75,0,1.12"></path><path class="cls-2" d="M94.86,90.49C94.92,80.27,89.79,76,79.48,77.8a20.43,20.43,0,0,0-10.85,5.1,13.08,13.08,0,0,0-4.19,9.81,10.07,10.07,0,0,0,2.3,7.13c1.56,1.73,3.73,2.36,6.54,1.89a5,5,0,0,0,2.86-1.45c-2.63-2.84-3.93-5.25-3.91-7.19a7.59,7.59,0,0,1,2.18-5,8.27,8.27,0,0,1,4.66-2.86q6.81-1.17,6.76,7.43A23.73,23.73,0,0,1,85.68,95c-.08.88-.12,1.38-.12,1.52,0,5.92-.06,8.86-.1,14.8-.06,10.34-3,16.26-8.74,17.3a4.59,4.59,0,0,1-4.45-1.2,6.08,6.08,0,0,1-1.58-4.35,17.17,17.17,0,0,1,3.51-9.93Q76,111,77.56,109l3.25-4q3.48-4.38,3.5-8,0-6.54-4.29-5.78c-2,.36-3.09,1.33-3.1,2.91a1.93,1.93,0,0,0,1.59,2,10.34,10.34,0,0,1,2.71,1c-.5,2.09-2.54,4.67-6.1,7.71q-3.86,3.24-6.15,5.28c-1.54,1.37-2.59,2.34-3.18,2.94-3.23,3.68-4.87,7.56-4.89,11.73,0,4.68,1.32,8.19,4,10.45,2.31,1.94,5.31,2.62,9,2,4-.71,7.88-3.34,11.78-7.8,0,3.41.22,5.11.72,5,4.8-.94,7.19-1.43,12-2.44q2.73-.57,2.73-1c0-.15-.74-.36-2.23-.65-2.88-.07-4.31-2-4.29-5.67q.09-17.09.2-34.16"></path><path class="cls-2" d="M140.07,66.19c-6.23,1.37-9.34,2.06-15.57,3.4q-2.73.59-2.73,1c0,.36.74.53,2.22.5s2.22,1.15,2.21,3.31a17.84,17.84,0,0,1-.52,4c-2.27,10.47-3.41,15.56-5.68,26-.14.63-.21.94-.34,1.57-.08.37-.13.55-.2.92-.08-.34-.12-.5-.19-.84-.13-.56-.19-.84-.32-1.41-2.15-9.51-3.23-14.14-5.38-23.73a14.8,14.8,0,0,1-.36-3.16q0-3.8,2.62-4.89c1.41-.66,2.11-1.14,2.11-1.43s-.9-.24-2.72.13c-6.43,1.35-9.64,2-16.07,3.28-1.82.35-2.72.67-2.72,1s.73.55,2.22.55c2.3,0,3.94,2,4.91,6.08,3.72,15.34,7.45,30.68,11.09,46-.67,3.37-1.2,6.08-1.57,8.1-.15.79-.29,1.47-.4,2-.18.9-.32,1.56-.42,2a20.56,20.56,0,0,1-.82,2.38c-1,2.37-2.24,3.75-3.77,4.09-2.14.47-3.23-.42-3.31-2.58,0-.09,0-.17,0-.26a7.08,7.08,0,0,1,1.59-4.14,17.73,17.73,0,0,1,2.75-2.88q-.73-1.33-4.2-.58c-3.64.79-6.08,2.52-7.33,5.28a11.72,11.72,0,0,0-1,4.27c0,.28,0,.56,0,.86,0,3.32.92,5.78,2.77,7.31s4.39,2,7.6,1.25c5.11-1.12,8.87-4.5,11.27-9.86a44.72,44.72,0,0,0,1.54-4.49c.38-1.27.79-2.72,1.22-4.34.09-.36.2-.72.29-1.11,1.21-4.63,2.61-10.56,4.22-17.64,3.16-14,6.41-27.9,9.63-41.84,1-4.35,3-7.32,5.85-8.82,1.49-.54,2.23-1,2.23-1.47,0-.29-.9-.23-2.72.17"></path><path class="cls-2" d="M208.89,60.44c1.1-4.47,3.09-7.33,6-8.49,1.48-.47,2.23-.92,2.23-1.35s-.91-.27-2.72,0c-6.24,1.12-9.35,1.72-15.59,2.94-1.9.38-2.84.71-2.85,1s.78.52,2.35.49,2.34,1.08,2.32,3.27a20.54,20.54,0,0,1-.63,3.92c-2.81,11.29-4.21,16.74-7,28l-.37,1.48c-.09.36-.13.54-.22.91l-.18-.83c-.11-.54-.17-.81-.28-1.36-2.27-10.77-3.4-16-5.67-26.82-.07-.34-.13-.63-.17-.86a4.79,4.79,0,0,1-.06-.79c0-2,1.55-3.87,4.6-5.42,1.49-.8,2.23-1.28,2.23-1.42s-.91-.25-2.72.12c-7,1.43-10.46,2.17-17.43,3.68-1.89.41-2.84.76-2.84,1.05s.73.59,2.21.49c3,.05,4.56,1.16,4.55,3.29a6.51,6.51,0,0,1-.38,2q-4.49,15.12-9,30.23c-.17.59-.25.88-.43,1.46-.1.37-.16.55-.27.92,0-.34-.08-.51-.13-.85-.09-.54-.13-.8-.22-1.35-1.66-10.46-2.49-15.51-4.16-26-.08-.55-.14-1.06-.18-1.55s0-1,0-1.37q0-4,2.49-5.06c1.41-.66,2.12-1.14,2.12-1.43s-.91-.23-2.72.17l-16.08,3.54c-1.81.4-2.72.75-2.72,1s.74.52,2.22.48c2.47,0,4.11,1.95,4.91,5.88,2.55,12.73,5.16,25.44,7.67,38.18a7.14,7.14,0,0,1,.11,1.6c0,2.4-1.5,4.33-4.46,5.77a9,9,0,0,0-2.23,1.63c0,.3.94.23,2.83-.22,7.92-1.86,11.87-2.79,19.78-4.6,1.82-.41,2.72-.77,2.72-1.06a.46.46,0,0,0-.27-.43,3.9,3.9,0,0,0-1.95-.17c-3-.06-4.43-1.3-4.42-3.7a8.52,8.52,0,0,1,.25-1.68C174.68,97.13,177.4,87,180.14,77c2.15,10.8,3.23,16.06,5.39,27.24a7.78,7.78,0,0,1,.12,1.6q0,3.7-4.48,5.7c-.81.52-1.38.92-1.72,1.18s-.39.33-.39.39c0,.3.95.24,2.85-.19,7.91-1.78,11.87-2.64,19.79-4.28,1.81-.37,2.71-.71,2.71-1s-.73-.58-2.22-.65q-4.56-.15-4.55-3.74a8.65,8.65,0,0,1,.26-1.67c3.6-13.71,7.31-27.4,11-41.1"></path><path class="cls-2" d="M250,71.25a52.62,52.62,0,0,0,.41-6c0-6.64-1.38-11.66-4.24-15-2.71-3.08-6.54-4.32-11.49-3.58-15.69,2.22-18.92,21.14-18.75,34-.06,8.23,1.47,14.4,4.58,18.44,2.79,3.59,6.79,5,12,4.13q8.3-1.35,12.77-6.51a17.49,17.49,0,0,0,4.15-11.49c0-3-.82-5.2-2.5-6.63s-4-2-6.86-1.53c-.41.06-.83.14-1.24.24a11.44,11.44,0,0,0-1.24.34A9.71,9.71,0,0,1,241,84.87a10.89,10.89,0,0,1-2.51,6.36c-1.66,2.16-3.32,3.38-5,3.65q-4.59.74-6.61-2.47c-1.35-2.14-2-6.19-2-12.06-.3-9.53.23-21.93,9.81-26.51,4.46-.67,6.67,1.7,6.64,6.93A10.69,10.69,0,0,1,237.52,69c-2.83,2.14-4.24,3.23-7.08,5.42a10.34,10.34,0,0,0-3.88,7.87A4.75,4.75,0,0,0,232,87.09a4.65,4.65,0,0,0,2.67-1.47,3.63,3.63,0,0,0,1.19-2.37c0-1.46-.78-2.07-2.35-1.82a3.49,3.49,0,0,0-1.73.9,3.53,3.53,0,0,1-1.12.8c-.66.11-1-.46-1-1.7,0-2.91,2.26-5.35,6.73-7.26a35.53,35.53,0,0,1,6.07-1.87c1.24-.26,2.57-.49,4-.68,1.14-.15,2.33-.27,3.58-.37"></path><path class="cls-2" d="M267.73,90.56c.15-25.35.33-50.7.39-76-5.5.44-8.26.7-13.76,1.31-1.81.2-2.72.51-2.73.9s.75.75,2.24.82c2.72.41,4.08,2.59,4.07,6.33q-.13,33.87-.38,67.71c0,3.48-1.39,5.74-4.12,6.73-1.49.4-2.23.86-2.23,1.37,0,.29.91.32,2.72.1,7-.85,10.49-1.21,17.48-1.77,1.83-.15,2.73-.36,2.73-.65s-.74-.67-2.23-.91c-2.8-.51-4.2-2.49-4.18-5.89"></path><path class="cls-2" d="M278,97.54c7-.44,10.5-.58,17.5-.68,1.82,0,2.74-.16,2.74-.46s-.75-.72-2.24-1.07q-4.22-1-4.19-6.15.22-37.94.39-75.89c-5.51.1-8.26.22-13.77.52-1.82.1-2.73.36-2.73.76s.74.78,2.23.94c2.73.55,4.08,2.8,4.08,6.55q-.13,33.75-.38,67.51c0,3.48-1.39,5.65-4.12,6.48-1.49.31-2.24.73-2.24,1.23,0,.3.91.37,2.73.26"></path><path class="cls-2" d="M194.35,128.85a1.78,1.78,0,0,0,.43-.25s-.19,0-.56,0l-3.92.86c-.37.08-.56.15-.56.21s.16.07.46,0c.54,0,.84.26.83.82v4.07a2.2,2.2,0,0,1-.17,1,1.15,1.15,0,0,1-.79.42h-.23c-.07,0-.11,0-.11.06,0,.33.22.55.64.64s.66.3.66.64c0,2,0,3,0,5a1.26,1.26,0,0,1-.83,1.27c-.29.1-.46.19-.46.28s.19,0,.56-.05l3.92-.86c.37-.08.56-.15.56-.2a.85.85,0,0,0-.43-.09c-.55,0-.9-.27-.9-.88,0-4.88,0-7.25,0-11.86a1.3,1.3,0,0,1,.9-1.2"></path><path class="cls-2" d="M205,126.72a3.72,3.72,0,0,1-.59.26,7.94,7.94,0,0,1-1.62,0,7.42,7.42,0,0,0-2,.08,5.72,5.72,0,0,0-3.7,2.75,11,11,0,0,0-1.47,5.94c0,4.72,1.56,6.87,4.69,6.2a5.69,5.69,0,0,0,3.34-1.83,4.43,4.43,0,0,0,1-2.95,2.2,2.2,0,0,0-.71-1.81,2.64,2.64,0,0,0-2.31-.34c-.53.11-.82.3-.79.34s.34.16.47.22l.41.22a1.53,1.53,0,0,1,.37.29,1.81,1.81,0,0,1,.43,1.24,3.09,3.09,0,0,1-.59,1.85,2.69,2.69,0,0,1-1.68,1.11,1.51,1.51,0,0,1-1.73-.84,6.93,6.93,0,0,1-.68-3.45,13.77,13.77,0,0,1,.94-5.27c.59-1.39,1.23-2.16,1.94-2.31a1,1,0,0,1,.84.13.79.79,0,0,1,.33.69,3.92,3.92,0,0,1-.41,1.47c-.08.18-.17.36-.25.53s-.18.34-.26.53l-1.48,3.2a5.74,5.74,0,0,0-.59,2.28,1.16,1.16,0,0,0,.36.92.89.89,0,0,0,.81.22c.63-.14.94-.43.94-.88s-.31-.42-.94-.29c-.15,0-.23,0-.23-.26a5,5,0,0,1,.47-1.63,8.78,8.78,0,0,1,.55-1.19c1.63-2.74,2.44-4.09,4.06-6.75l.37-.54c.11-.16.3-.46.29-.46l-.22.1-.44.22"></path><path class="cls-2" d="M215.4,133.75c.06,0,.27,0,.31,0,.41-.08.61-.27.61-.57s-.23-.44-.71-.35a2,2,0,0,0-1.48,1.46c-.12.39-.23.79-.35,1.18a12.21,12.21,0,0,1-.34,1.18,2.56,2.56,0,0,1-2,1.58c-.5.1-.84.07-1-.1a1.48,1.48,0,0,1-.27-1.07c0-1.65,0-2.47,0-4.08l.71-.14c.8-.16,1.35,0,1.47.3.07.17.13.29.23.28s.13-.16.13-.42v-2.53q0-.39-.12-.36c-.11,0-.17.16-.23.36-.13.42-.67.73-1.48.9l-.71.14c0-1.91,0-2.86,0-4.73.11-.18.42-.31.94-.42a2.06,2.06,0,0,1,2.14.58,3,3,0,0,1,.27.53c.12.29.28.68.46,1.18s.55.9,1,.81.81-.32.81-.65-.8-.2-.94-.3a12.13,12.13,0,0,1,1.28-4.36c-3.66.7-5.48,1.06-9.14,1.81-.37.07-.56.14-.56.19s.16.08.46.07a.73.73,0,0,1,.84.83c0,1.61,0,2.42,0,4.06a2.14,2.14,0,0,1-.17,1,1.12,1.12,0,0,1-.8.4,1.5,1.5,0,0,1-.22,0c-.07,0-.11,0-.11.05,0,.34.22.57.64.66s.66.31.66.66v5a1.24,1.24,0,0,1-.85,1.25c-.29.1-.45.19-.45.28s.18,0,.56,0c3.75-.77,5.63-1.15,9.39-1.87a10.85,10.85,0,0,1-1.15-3.91,1.86,1.86,0,0,1,.13-.84"></path><path class="cls-2" d="M234.53,121.24a3,3,0,0,1-.59.24,7.74,7.74,0,0,1-1.62-.07,7.94,7.94,0,0,0-2,0,5.4,5.4,0,0,0-3.7,2.6,10.7,10.7,0,0,0-1.48,5.88c0,4.72,1.56,6.91,4.7,6.38a5.46,5.46,0,0,0,3.34-1.69,4.26,4.26,0,0,0,1.05-2.9,2.29,2.29,0,0,0-.72-1.84,2.7,2.7,0,0,0-2.31-.45c-.53.09-.82.27-.79.32a2.06,2.06,0,0,0,.47.23l.4.24a1.42,1.42,0,0,1,.37.31,1.83,1.83,0,0,1,.43,1.25,3,3,0,0,1-.58,1.83,2.63,2.63,0,0,1-1.68,1,1.59,1.59,0,0,1-1.73-.91,7,7,0,0,1-.69-3.47,13.2,13.2,0,0,1,.95-5.23c.58-1.36,1.23-2.11,1.94-2.23a1.07,1.07,0,0,1,.83.16.83.83,0,0,1,.34.71,3.75,3.75,0,0,1-.41,1.45l-.26.52c-.08.16-.17.34-.25.52-.6,1.24-.89,1.87-1.48,3.12a5.62,5.62,0,0,0-.59,2.27,1.18,1.18,0,0,0,.36.92.86.86,0,0,0,.81.25c.62-.1.94-.38.94-.83s-.32-.44-.94-.33c-.15,0-.23-.06-.23-.26a5,5,0,0,1,.46-1.62,8.73,8.73,0,0,1,.56-1.17c1.63-2.66,2.44-4,4.06-6.55l.37-.52c.12-.17.3-.46.3-.46l-.23.1-.44.19"></path><path class="cls-2" d="M246.44,132.72a5.12,5.12,0,0,1-.54-1.36c-.66-2.07-1-3.09-1.65-5.11,1.77-1.45,2.65-2.84,2.66-4.16a2.14,2.14,0,0,0-1.38-2.23,7.86,7.86,0,0,0-3.77-.09c-2.06.3-3.1.46-5.17.79-.37.06-.56.11-.56.17s.16.09.46.08a.77.77,0,0,1,.84.87v4a2.19,2.19,0,0,1-.17,1,1.1,1.1,0,0,1-.81.37l-.22,0c-.07,0-.11,0-.11.06,0,.33.22.57.64.68s.66.34.66.69v5a1.18,1.18,0,0,1-.84,1.21c-.3.09-.46.17-.46.26s.19,0,.56,0l3.92-.62c.38,0,.56-.1.56-.15s-.16-.09-.43-.12a.88.88,0,0,1-.89-.94c0-4.22,0-6.27,0-10.28,0-1.14.29-1.75.87-1.84l1.85-.27c1.33-.19,2,.51,2,2.15a4,4,0,0,1-1.18,2.57c-.34.38-.74.77-1.1,1.14l-1.12,1.13a3.47,3.47,0,0,0-1.16,2c0,.67.34,1,1,.86a1.26,1.26,0,0,0,.51-.22.56.56,0,0,0,.25-.46c0-.3-.84-.28-1-.4a4.39,4.39,0,0,1,1.48-1.79c.73,2.39,1.1,3.61,1.84,6.08l3.56-.5c.27,0,.42-.08.44-.13l-.72-.16a2.05,2.05,0,0,1-.89-.32"></path><path class="cls-2" d="M257.83,127.11c.05,0,.27,0,.31,0,.41,0,.61-.22.61-.52s-.24-.46-.71-.41a1.75,1.75,0,0,0-1.48,1.35c-.13.38-.24.77-.35,1.15s-.21.79-.34,1.15a2.34,2.34,0,0,1-2,1.44,1.22,1.22,0,0,1-1-.18,1.63,1.63,0,0,1-.26-1.1v-4.07l.71-.09c.8-.1,1.35.06,1.48.41.07.18.13.31.23.3s.13-.15.13-.41v-2.52c0-.26,0-.39-.13-.37s-.16.15-.23.34c-.12.4-.66.69-1.48.79l-.71.08c0-1.91,0-2.85,0-4.72a1.43,1.43,0,0,1,.94-.34,2.19,2.19,0,0,1,2.14.73,2.5,2.5,0,0,1,.28.56c.12.29.28.69.45,1.21s.57.94,1,.88.81-.25.81-.59-.79-.25-.94-.36.31-2.21,1.28-4.25c-3.66.41-5.49.63-9.15,1.11-.37.06-.57.11-.57.17s.17.08.47.09a.79.79,0,0,1,.84.89c0,1.61,0,2.42,0,4a2,2,0,0,1-.17,1,1.05,1.05,0,0,1-.8.35,1.27,1.27,0,0,1-.23,0c-.06,0-.1,0-.1.05,0,.33.21.57.63.69s.67.36.67.71c0,2,0,3,0,5a1.13,1.13,0,0,1-.84,1.18c-.29.09-.46.16-.46.25s.19,0,.57,0c3.76-.5,5.64-.73,9.4-1.15a11.58,11.58,0,0,1-1.15-4,1.9,1.9,0,0,1,.13-.83"></path><path class="cls-2" d="M270.56,130a2.49,2.49,0,0,1-.47-1.09c-.95-4.25-1.43-6.31-2.38-10.32a2.8,2.8,0,0,1-.1-.74,1.08,1.08,0,0,1,.23-.73,1.15,1.15,0,0,1,.46-.3c.15,0,.23-.1.23-.13s-.16-.11-.48-.08c-1.71.15-2.56.23-4.27.4-.32,0-.48.09-.48.17s.09,0,.26.1a.74.74,0,0,1,.4.21.93.93,0,0,1,.23.69,5.34,5.34,0,0,1-.23,1.21c-.25.91-.37,1.37-.62,2.3a5.39,5.39,0,0,1-.63,1.64,1.38,1.38,0,0,1-1,.46.93.93,0,0,1-.33,0,.14.14,0,0,0-.13,0,.2.2,0,0,0,0,.17.51.51,0,0,0,.13.22l.22.2a.67.67,0,0,0,.23.13c.41.14.64.34.62.48s-.1.37-.15.57c-.36,1.37-.54,2.06-.89,3.45-.09.37-.18.67-.26.91a3.36,3.36,0,0,1-.26.56,4.14,4.14,0,0,1-1.48,1.25c-.05,0,0,0,.08.06a.9.9,0,0,0,.28,0l4.59-.48a.88.88,0,0,0,.3-.07c.07,0,.09-.06.06-.07-.85-.21-1.28-.59-1.28-1.13a4.47,4.47,0,0,1,.61-2.37c.25-.21,1.12.19,1.07.44s-.4.66-.4.83a.53.53,0,0,0,.24.39.72.72,0,0,0,.55.15,1.18,1.18,0,0,0,.74-.29.72.72,0,0,0,.28-.53c0-.18-.39-.62-.39-.77s.87-.55,1-.46c.3.17.54,1.47.54,2.15a1.14,1.14,0,0,1-.18.75,2.32,2.32,0,0,1-1,.61l0,0c0,.1.11.14.34.13,1.79-.17,2.69-.25,4.48-.4.33,0,.49-.07.49-.13l0,0a3.43,3.43,0,0,1-1.19-.58m-4.88-3.58c-.32,0-1.09-.6-1.3-.68.53-2.19.8-3.26,1.33-5.39,0,0,0,0,.05,0a.16.16,0,0,1,0,.11c.43,2,.64,3.05,1.07,5.15A9.07,9.07,0,0,1,265.68,126.43Z"></path><path class="cls-2" d="M286.19,115.67a1.13,1.13,0,0,0,.46-.17c0-.06-.2-.08-.59-.06-1.59.06-2.39.1-4,.18a2.41,2.41,0,0,0-1,.16c.06.16.58.43.58.57s0,.18-.13.51c-.76,2.64-1.13,4-1.9,6.73-.79-2.58-1.18-3.85-2-6.35a1.11,1.11,0,0,1-.05-.28c0-.51.76-1,.77-1a2.27,2.27,0,0,0-.64-.06c-1.88.12-2.83.19-4.72.33-.37,0-.56.08-.56.13s.16.1.46.12a.83.83,0,0,1,.83.94v4a2.07,2.07,0,0,1-.17,1c-.1.16-.38.26-.8.3l-.23,0c-.06,0-.1,0-.1,0,0,.33.21.59.64.73s.66.4.66.75c0,2,0,3,0,5a1.06,1.06,0,0,1-.84,1.14c-.29.06-.45.13-.45.22s.18.06.55,0l3.71-.27c.39,0,.58-.06.58-.1s-.17-.11-.45-.17a1,1,0,0,1-.9-1c0-4,0-6,0-9.84,1.27,4.25,1.91,6.44,3.19,11l.91-.05c1.21-4.81,1.81-7.13,3-11.64,0,4,0,6,0,10.15a1,1,0,0,1-.84,1.11c-.29.06-.46.13-.46.21s.19.06.56.05c1.49-.08,2.23-.11,3.7-.17.4,0,.59,0,.59-.1s-.16-.11-.46-.17a1,1,0,0,1-.89-1c0-4.89,0-7.24,0-11.84a1,1,0,0,1,.9-1"></path><path class="cls-2" d="M293.56,120.94a5.53,5.53,0,0,1,.53-1.09c.14-.26.23-.45.29-.53,1-1.52,1.51-2.27,2.53-3.76a14.63,14.63,0,0,1-2.32-.25,12.31,12.31,0,0,0-2.12-.23,4.9,4.9,0,0,0-3,1,2.79,2.79,0,0,0-1.23,2.32c0,1.29,3.34,3.15,3.65,4.08.12.37-.69,2-.69,2.36a1.42,1.42,0,0,0,.47,1.1,1.57,1.57,0,0,0,1.16.43c.6,0,.92-.21,1-.59a.43.43,0,0,0-.19-.37.71.71,0,0,0-.48-.15c-.23,0-.56.15-.82.17-.1,0-.2-.19-.2-.51a3.88,3.88,0,0,1,.2-1.17c.14-.42.4-.8.52-.8,1,0,2.55,2,2.55,2.91a2.58,2.58,0,0,1-.79,2,3,3,0,0,1-2.05.76c-1.5,0-2.25-.86-2.25-2.66v-.27a1.84,1.84,0,0,0-.43-1.31A1.13,1.13,0,0,0,289,124c-.43,0-.64.18-.64.5s.72.37.91.52c0,0,0,.12,0,.18v.16a8.18,8.18,0,0,1-1.59,3.7c-.09.27-.15.39-.25.66a4.86,4.86,0,0,1,1.38-.23,10.19,10.19,0,0,1,2,.19,13.07,13.07,0,0,0,2,.19,5.21,5.21,0,0,0,3.52-1.28,3.78,3.78,0,0,0,1.3-2.92,3.36,3.36,0,0,0-.89-2.39c-.52-.58-3.08-1.73-3.26-2.32m-.74-.42c-.4.1-2.22-1.67-2.22-2.47a1.6,1.6,0,0,1,.52-1.25,2.21,2.21,0,0,1,1.4-.48c1.09,0,1.63.35,1.63,1.11C294.15,118,293.32,120.39,292.82,120.52Z"></path><path class="cls-1" d="M298.18,0C197.37,2.36,101.8,40.5,1,42.91v4.42C101.81,45,197.37,6.73,298.18,4.4V0"></path></svg>